<svg xmlns="http://www.w3.org/2000/svg" width="240" height="220" viewBox="0 0 240 220" role="img" aria-labelledby="title desc">
  <title id="title">Restaurant menu flatlay</title>
  <desc id="desc">A restaurant menu card, coffee, and small plated dish arranged on a warm tabletop.</desc>
  <defs>
    <linearGradient id="table" x1="0" x2="1" y1="0" y2="1">
      <stop offset="0" stop-color="#fff3d6"/>
      <stop offset="1" stop-color="#b46a3e"/>
    </linearGradient>
    <filter id="shadow" x="-20%" y="-20%" width="140%" height="140%">
      <feDropShadow dx="0" dy="8" stdDeviation="8" flood-color="#3a1d12" flood-opacity="0.24"/>
    </filter>
  </defs>
  <rect width="240" height="220" fill="url(#table)"/>
  <rect x="28" y="22" width="112" height="166" rx="12" fill="#fffaf0" filter="url(#shadow)"/>
  <text x="48" y="54" fill="#8b2f24" font-family="Arial, Helvetica, sans-serif" font-size="16" font-weight="700">TASTING</text>
  <text x="48" y="74" fill="#2a211c" font-family="Arial, Helvetica, sans-serif" font-size="10" font-weight="700">LIMITED MENU</text>
  <g stroke="#d7b475" stroke-width="4" stroke-linecap="round">
    <path d="M48 101h70"/>
    <path d="M48 123h58"/>
    <path d="M48 145h73"/>
  </g>
  <g fill="#2f6b43">
    <ellipse cx="131" cy="35" rx="8" ry="20" transform="rotate(44 131 35)"/>
    <ellipse cx="138" cy="176" rx="7" ry="18" transform="rotate(134 138 176)"/>
  </g>
  <circle cx="178" cy="72" r="35" fill="#fffaf0" filter="url(#shadow)"/>
  <circle cx="178" cy="72" r="24" fill="#6d3728"/>
  <path d="M162 65c11 10 22 11 34 0" fill="none" stroke="#e8c58a" stroke-width="5" stroke-linecap="round"/>
  <ellipse cx="178" cy="158" rx="46" ry="32" fill="#fffaf0" filter="url(#shadow)"/>
  <ellipse cx="178" cy="158" rx="31" ry="19" fill="#d75f34"/>
  <path d="M160 160c17-17 35-17 54 0" stroke="#f8ce65" stroke-width="6" stroke-linecap="round"/>
  <circle cx="187" cy="149" r="5" fill="#2f6b43"/>
</svg>
