<svg xmlns="http://www.w3.org/2000/svg" width="680" height="760" viewBox="0 0 680 760" role="img" aria-labelledby="title desc">
  <title id="title">Polished plated restaurant dish</title>
  <desc id="desc">A composed restaurant dish on a ceramic plate with herbs, sauce, and warm table lighting.</desc>
  <defs>
    <radialGradient id="table" cx="50%" cy="45%" r="75%">
      <stop offset="0" stop-color="#ffe8b3"/>
      <stop offset="0.55" stop-color="#b9643d"/>
      <stop offset="1" stop-color="#321f19"/>
    </radialGradient>
    <filter id="shadow" x="-20%" y="-20%" width="140%" height="140%">
      <feDropShadow dx="0" dy="24" stdDeviation="22" flood-color="#2a130c" flood-opacity="0.32"/>
    </filter>
  </defs>
  <rect width="680" height="760" fill="url(#table)"/>
  <g opacity="0.2" stroke="#fff4cf" stroke-width="2">
    <path d="M0 130h680M0 260h680M0 390h680M0 520h680M0 650h680"/>
    <path d="M112 0v760M244 0v760M376 0v760M508 0v760"/>
  </g>
  <circle cx="340" cy="380" r="260" fill="#f7f1e6" filter="url(#shadow)"/>
  <circle cx="340" cy="380" r="206" fill="#fffaf1"/>
  <circle cx="340" cy="380" r="146" fill="#f3dfbf"/>
  <path d="M244 414c62 76 180 72 232-10 27-43 9-104-45-134-55-30-129-14-178 31-48 45-48 75-9 113z" fill="#a73b2c"/>
  <path d="M276 395c49 43 128 39 165-14 18-26 5-64-29-81-42-21-92-8-126 23-34 32-37 50-10 72z" fill="#d96036"/>
  <path d="M248 458c84 35 170 31 253-14" fill="none" stroke="#6d2b22" stroke-width="15" stroke-linecap="round" opacity="0.58"/>
  <g stroke="#244c32" stroke-width="10" stroke-linecap="round">
    <path d="M304 292c-14-33-5-66 24-94"/>
    <path d="M382 291c9-43 36-70 82-78"/>
    <path d="M260 362c-42-7-73-29-92-66"/>
    <path d="M448 376c45 3 82 24 111 62"/>
  </g>
  <g fill="#2f6b43">
    <ellipse cx="322" cy="222" rx="15" ry="34" transform="rotate(29 322 222)"/>
    <ellipse cx="462" cy="213" rx="16" ry="34" transform="rotate(70 462 213)"/>
    <ellipse cx="168" cy="292" rx="14" ry="33" transform="rotate(121 168 292)"/>
    <ellipse cx="556" cy="438" rx="14" ry="34" transform="rotate(126 556 438)"/>
  </g>
  <g fill="#ffd16b">
    <circle cx="285" cy="343" r="10"/>
    <circle cx="399" cy="344" r="8"/>
    <circle cx="341" cy="458" r="9"/>
    <circle cx="453" cy="410" r="7"/>
  </g>
  <g fill="#fff6db" opacity="0.9">
    <circle cx="306" cy="391" r="7"/>
    <circle cx="370" cy="315" r="6"/>
    <circle cx="414" cy="381" r="7"/>
  </g>
  <path d="M104 105c87 43 127 42 213-3" fill="none" stroke="#fff1cc" stroke-width="10" stroke-linecap="round" opacity="0.8"/>
  <path d="M470 620c46-51 78-63 140-63" fill="none" stroke="#fff1cc" stroke-width="10" stroke-linecap="round" opacity="0.72"/>
</svg>
