<svg xmlns="http://www.w3.org/2000/svg" width="720" height="820" viewBox="0 0 720 820" role="img" aria-labelledby="title desc">
  <title id="title">Warm restaurant dining room</title>
  <desc id="desc">A polished restaurant interior with plated food, pendant lights, banquette seating, and a service counter.</desc>
  <defs>
    <linearGradient id="bg" x1="0" x2="1" y1="0" y2="1">
      <stop offset="0" stop-color="#fff3d7"/>
      <stop offset="0.46" stop-color="#eeb170"/>
      <stop offset="1" stop-color="#8b2f24"/>
    </linearGradient>
    <linearGradient id="wall" x1="0" x2="0" y1="0" y2="1">
      <stop offset="0" stop-color="#3c5141"/>
      <stop offset="1" stop-color="#1f2a24"/>
    </linearGradient>
    <filter id="shadow" x="-20%" y="-20%" width="140%" height="140%">
      <feDropShadow dx="0" dy="18" stdDeviation="18" flood-color="#2a160c" flood-opacity="0.28"/>
    </filter>
  </defs>
  <rect width="720" height="820" fill="url(#bg)"/>
  <rect x="44" y="54" width="632" height="406" rx="28" fill="url(#wall)" opacity="0.96"/>
  <path d="M74 430h572v60H74z" fill="#6f3022"/>
  <path d="M98 96h524v278H98z" fill="#25342c"/>
  <path d="M98 96h524v278H98z" fill="#fff2d4" opacity="0.05"/>
  <g opacity="0.5" stroke="#f6d486" stroke-width="3">
    <path d="M166 96v278M258 96v278M350 96v278M442 96v278M534 96v278"/>
    <path d="M98 190h524M98 282h524"/>
  </g>
  <g>
    <path d="M155 64v76" stroke="#2b2118" stroke-width="5" stroke-linecap="round"/>
    <ellipse cx="155" cy="154" rx="54" ry="24" fill="#f2b94f"/>
    <ellipse cx="155" cy="149" rx="42" ry="17" fill="#ffe6a2"/>
    <path d="M360 48v88" stroke="#2b2118" stroke-width="5" stroke-linecap="round"/>
    <ellipse cx="360" cy="153" rx="62" ry="28" fill="#f2b94f"/>
    <ellipse cx="360" cy="147" rx="49" ry="19" fill="#ffe6a2"/>
    <path d="M565 64v76" stroke="#2b2118" stroke-width="5" stroke-linecap="round"/>
    <ellipse cx="565" cy="154" rx="54" ry="24" fill="#f2b94f"/>
    <ellipse cx="565" cy="149" rx="42" ry="17" fill="#ffe6a2"/>
  </g>
  <rect x="72" y="470" width="576" height="112" rx="18" fill="#f6d486" filter="url(#shadow)"/>
  <rect x="72" y="470" width="576" height="40" rx="18" fill="#fff2d4" opacity="0.55"/>
  <g filter="url(#shadow)">
    <ellipse cx="211" cy="518" rx="74" ry="30" fill="#fffaf0"/>
    <ellipse cx="211" cy="516" rx="50" ry="18" fill="#c8402e"/>
    <path d="M172 513c35-31 65-30 91 0" fill="none" stroke="#f7c35f" stroke-width="8" stroke-linecap="round"/>
    <circle cx="224" cy="508" r="8" fill="#2f5a3c"/>
    <circle cx="203" cy="526" r="6" fill="#fff2d4"/>
    <ellipse cx="364" cy="524" rx="76" ry="32" fill="#fffaf0"/>
    <rect x="329" y="504" width="70" height="34" rx="12" fill="#9a3a2b"/>
    <path d="M338 510h52M335 524h58" stroke="#ffd983" stroke-width="5" stroke-linecap="round"/>
    <circle cx="397" cy="498" r="9" fill="#3f714b"/>
    <ellipse cx="514" cy="519" rx="70" ry="29" fill="#fffaf0"/>
    <path d="M475 522c38-42 81-40 91 1" fill="#2f5a3c"/>
    <path d="M489 509c24 13 46 14 65 2" stroke="#ffd983" stroke-width="7" stroke-linecap="round"/>
  </g>
  <g>
    <rect x="70" y="604" width="108" height="154" rx="18" fill="#3b2820"/>
    <rect x="210" y="610" width="108" height="148" rx="18" fill="#3b2820"/>
    <rect x="402" y="610" width="108" height="148" rx="18" fill="#3b2820"/>
    <rect x="542" y="604" width="108" height="154" rx="18" fill="#3b2820"/>
    <rect x="88" y="622" width="72" height="72" rx="12" fill="#b64732"/>
    <rect x="228" y="628" width="72" height="66" rx="12" fill="#b64732"/>
    <rect x="420" y="628" width="72" height="66" rx="12" fill="#b64732"/>
    <rect x="560" y="622" width="72" height="72" rx="12" fill="#b64732"/>
  </g>
  <path d="M0 730c120-36 218-36 350-7 150 34 237 34 370-8v105H0z" fill="#2b2118" opacity="0.96"/>
</svg>
